<?xml version="1.0" encoding="UTF-8"?>
<!DOCTYPE svg PUBLIC "-//W3C//DTD SVG 1.1//EN" "http://www.w3.org/Graphics/SVG/1.1/DTD/svg11.dtd">
<!-- Creator: CorelDRAW -->
<svg xmlns="http://www.w3.org/2000/svg" xml:space="preserve" width="91.44mm" height="32.8506mm" version="1.1" style="shape-rendering:geometricPrecision; text-rendering:geometricPrecision; image-rendering:optimizeQuality; fill-rule:evenodd; clip-rule:evenodd"
viewBox="0 0 9144 3285.06"
 xmlns:xlink="http://www.w3.org/1999/xlink"
 xmlns:xodm="http://www.corel.com/coreldraw/odm/2003">
 <defs>
  <style type="text/css">
   <![CDATA[
    .fil1 {fill:#33CC33}
    .fil0 {fill:white;fill-rule:nonzero}
   ]]>
  </style>
 </defs>
 <g id="Camada_x0020_1">
  <metadata id="CorelCorpID_0Corel-Layer"/>
  <g id="_2695531091312">
   <path class="fil0" d="M2685.25 2569.96l985.19 0c428.04,0 903.65,-166.47 903.65,-669.25 0,-312.55 -210.62,-546.95 -526.57,-587.72l0 -6.79c248,-78.13 414.46,-261.58 414.46,-529.96 0,-523.17 -458.62,-611.5 -879.87,-611.5l-896.86 0 0 2405.22zm2076.95 -2272.73c0,163.06 132.49,295.55 295.55,295.55 163.07,0 295.57,-132.49 295.57,-295.55 0,-163.07 -132.5,-295.55 -295.57,-295.55 -163.06,0 -295.55,132.48 -295.55,295.55zm40.77 2272.73l509.58 0 0 -1752.96 -509.58 0 0 1752.96zm4002.33 -1752.96l-523.18 0 -363.5 1090.5 -6.79 0 -424.65 -1090.5 -550.34 0 723.6 1664.62 0 0.01c0,112.9 -50.76,214.52 -130.56,283.18 -46.26,57.27 -111.91,88.3 -233.35,90.37l-0.48 0.02 -5.31 0.07 -3.99 0.04 -3.4 0 -246.09 0 -100.42 0 0 428.05 421.25 0 45.87 0 0 -0.62c445.02,-12.29 522.46,-207.73 653.94,-546.33l747.4 -1919.41zm-2566.17 1752.96l509.57 0 0 -2568.28 -509.57 0 0 2568.28zm-697.69 0l509.58 0 0 -2568.28 -509.58 0 0 2568.28zm-2097.33 -1471.4l-228.89 0 0 -228.9 0 -228.89 228.89 0 228.9 0c125.89,0 228.89,103 228.89,228.89 0,125.9 -103,228.9 -228.89,228.9l-228.9 0zm228.9 520.59l228.89 0c125.9,0 228.9,103 228.9,228.89 0,125.9 -103,228.9 -228.9,228.9l-228.89 0 -228.9 0 -228.89 0 0 -228.9 0 -228.89 228.89 0 228.9 0z"/>
   <path class="fil1" d="M652.14 164.74l335.35 0c0,163.07 132.48,295.55 295.55,295.55 163.06,0 295.57,-132.48 295.57,-295.55l335.33 0c172.44,0 313.52,141.08 313.52,313.51l0 336.81 -3.91 0c-57.26,0 -69.27,82.95 -11.18,97.75 3.77,0.82 7.31,1.26 11.18,1.26l3.91 0 0 875.98 -3.91 0c-57.26,0 -69.27,82.94 -11.18,97.75 3.77,0.82 7.31,1.26 11.18,1.26l3.91 0 0 367.36c0,172.45 -141.08,313.54 -313.52,313.54l-335.35 0c0,-163.07 -132.5,-295.56 -295.56,-295.56 -163.07,0 -295.56,132.49 -295.56,295.56l-335.33 0c-172.44,0 -313.52,-141.09 -313.52,-313.54l0 -367.36 3.9 0c57.26,0 69.27,-82.95 11.18,-97.75 -3.78,-0.82 -7.31,-1.26 -11.18,-1.26l-3.9 0 0 -875.98 3.9 0c57.26,0 69.27,-82.94 11.18,-97.75 -3.78,-0.82 -7.31,-1.26 -11.18,-1.26l-3.9 0 0 -336.81c0,-172.43 141.08,-313.51 313.52,-313.51zm-12.62 650.32c-57.25,0 -69.26,82.95 -11.17,97.75 3.77,0.82 7.3,1.26 11.17,1.26l99.01 0c57.25,0 69.26,-82.94 11.17,-97.75 -3.77,-0.82 -7.3,-1.26 -11.17,-1.26l-99.01 0zm396.01 0c-57.26,0 -69.27,82.95 -11.18,97.75 3.78,0.82 7.31,1.26 11.18,1.26l99 0c57.26,0 69.27,-82.94 11.18,-97.75 -3.78,-0.82 -7.31,-1.26 -11.18,-1.26l-99 0zm396.01 0c-57.26,0 -69.27,82.95 -11.18,97.75 3.77,0.82 7.31,1.26 11.18,1.26l99 0c57.26,0 69.26,-82.94 11.18,-97.75 -3.78,-0.82 -7.31,-1.26 -11.18,-1.26l-99 0zm396 0c-57.26,0 -69.27,82.95 -11.18,97.75 3.78,0.82 7.31,1.26 11.18,1.26l99 0c57.26,0 69.27,-82.94 11.18,-97.75 -3.78,-0.82 -7.31,-1.26 -11.18,-1.26l-99 0zm0 974.99c-57.26,0 -69.27,82.94 -11.18,97.75 3.78,0.82 7.31,1.26 11.18,1.26l99 0c57.26,0 69.27,-82.95 11.18,-97.75 -3.78,-0.82 -7.31,-1.26 -11.18,-1.26l-99 0zm-396 0c-57.26,0 -69.27,82.94 -11.18,97.75 3.77,0.82 7.31,1.26 11.18,1.26l99 0c57.26,0 69.26,-82.95 11.18,-97.75 -3.78,-0.82 -7.31,-1.26 -11.18,-1.26l-99 0zm-396.01 0c-57.26,0 -69.27,82.94 -11.18,97.75 3.78,0.82 7.31,1.26 11.18,1.26l99 0c57.26,0 69.27,-82.95 11.18,-97.75 -3.78,-0.82 -7.31,-1.26 -11.18,-1.26l-99 0zm-396.01 0c-57.25,0 -69.26,82.94 -11.17,97.75 3.77,0.82 7.3,1.26 11.17,1.26l99.01 0c57.25,0 69.26,-82.95 11.17,-97.75 -3.77,-0.82 -7.3,-1.26 -11.17,-1.26l-99.01 0z"/>
  </g>
 </g>
</svg>
